<mxfile host="app.diagrams.net" agent="Mozilla/5.0 (Windows NT 10.0; Win64; x64) AppleWebKit/537.36 (KHTML, like Gecko) Chrome/133.0.0.0 Safari/537.36" version="26.0.16">
  <diagram name="PÃ¡gina-1" id="T2pf7Hs2AM5AWzYYO3_f">
    <mxGraphModel dx="880" dy="1603" grid="1" gridSize="10" guides="1" tooltips="1" connect="1" arrows="1" fold="1" page="1" pageScale="1" pageWidth="827" pageHeight="1169" math="0" shadow="0">
      <root>
        <mxCell id="0" />
        <mxCell id="1" parent="0" />
        <mxCell id="DfkuYRPkKveE3gYTs_tg-1" value="JugadorPartido" style="swimlane;whiteSpace=wrap;html=1;fillColor=#dae8fc;strokeColor=#6c8ebf;" vertex="1" parent="1">
          <mxGeometry x="170" y="80" width="120" height="90" as="geometry" />
        </mxCell>
        <mxCell id="DfkuYRPkKveE3gYTs_tg-4" value="&lt;b&gt;PK&amp;nbsp;&lt;span style=&quot;white-space: pre;&quot;&gt;&#x9;&lt;/span&gt;ID&lt;/b&gt;&lt;div&gt;&lt;b&gt;FK&lt;span style=&quot;white-space: pre;&quot;&gt;&#x9;&lt;/span&gt;ID_Jugador&lt;/b&gt;&lt;/div&gt;&lt;div&gt;&lt;b&gt;FK &lt;span style=&quot;white-space: pre;&quot;&gt;&#x9;&lt;/span&gt;ID_Partido&lt;/b&gt;&lt;/div&gt;&lt;div&gt;PosicionJugada&lt;br&gt;&lt;div&gt;&lt;br&gt;&lt;/div&gt;&lt;/div&gt;" style="text;html=1;align=center;verticalAlign=middle;whiteSpace=wrap;rounded=0;" vertex="1" parent="DfkuYRPkKveE3gYTs_tg-1">
          <mxGeometry x="10" y="50" width="100" height="30" as="geometry" />
        </mxCell>
        <mxCell id="DfkuYRPkKveE3gYTs_tg-6" value="Jugador" style="swimlane;whiteSpace=wrap;html=1;fillColor=#dae8fc;strokeColor=#6c8ebf;" vertex="1" parent="1">
          <mxGeometry x="160" y="240" width="120" height="90" as="geometry" />
        </mxCell>
        <mxCell id="DfkuYRPkKveE3gYTs_tg-7" value="&lt;b&gt;PK&amp;nbsp;&lt;span style=&quot;white-space: pre;&quot;&gt;&#x9;&lt;/span&gt;ID&lt;/b&gt;&lt;div&gt;&lt;b&gt;FK&lt;span style=&quot;white-space: pre;&quot;&gt;&#x9;&lt;/span&gt;ID_Equipo&lt;/b&gt;&lt;/div&gt;&lt;div&gt;Nombre&lt;/div&gt;&lt;div&gt;Posicion&lt;/div&gt;&lt;div&gt;&lt;b&gt;&lt;br&gt;&lt;/b&gt;&lt;div&gt;&lt;div&gt;&lt;br&gt;&lt;/div&gt;&lt;/div&gt;&lt;/div&gt;" style="text;html=1;align=center;verticalAlign=middle;whiteSpace=wrap;rounded=0;" vertex="1" parent="DfkuYRPkKveE3gYTs_tg-6">
          <mxGeometry x="10" y="55" width="100" height="30" as="geometry" />
        </mxCell>
        <mxCell id="DfkuYRPkKveE3gYTs_tg-8" value="Equipo" style="swimlane;whiteSpace=wrap;html=1;fillColor=#dae8fc;strokeColor=#6c8ebf;" vertex="1" parent="1">
          <mxGeometry x="310" y="-40" width="120" height="90" as="geometry" />
        </mxCell>
        <mxCell id="DfkuYRPkKveE3gYTs_tg-9" value="&lt;b&gt;PK&amp;nbsp;&lt;span style=&quot;white-space: pre;&quot;&gt;&#x9;&lt;/span&gt;ID&lt;/b&gt;&lt;div&gt;Nombre&lt;/div&gt;&lt;div&gt;Pais&lt;/div&gt;&lt;div&gt;&lt;b&gt;&lt;br&gt;&lt;/b&gt;&lt;div&gt;&lt;div&gt;&lt;br&gt;&lt;/div&gt;&lt;/div&gt;&lt;/div&gt;" style="text;html=1;align=center;verticalAlign=middle;whiteSpace=wrap;rounded=0;" vertex="1" parent="DfkuYRPkKveE3gYTs_tg-8">
          <mxGeometry x="10" y="55" width="100" height="30" as="geometry" />
        </mxCell>
        <mxCell id="DfkuYRPkKveE3gYTs_tg-10" value="PartidoEquipo" style="swimlane;whiteSpace=wrap;html=1;fillColor=#dae8fc;strokeColor=#6c8ebf;" vertex="1" parent="1">
          <mxGeometry x="420" y="100" width="120" height="90" as="geometry" />
        </mxCell>
        <mxCell id="DfkuYRPkKveE3gYTs_tg-11" value="&lt;b&gt;PK&amp;nbsp;&lt;span style=&quot;white-space: pre;&quot;&gt;&#x9;&lt;/span&gt;ID&lt;/b&gt;&lt;div&gt;&lt;b&gt;FK&lt;span style=&quot;white-space: pre;&quot;&gt;&#x9;&lt;/span&gt;ID_Partido&lt;/b&gt;&lt;/div&gt;&lt;div&gt;&lt;b&gt;FK&lt;span style=&quot;white-space: pre;&quot;&gt;&#x9;&lt;/span&gt;ID_Equipo&lt;/b&gt;&lt;/div&gt;&lt;div&gt;&lt;b&gt;Condicion&lt;/b&gt;&lt;/div&gt;&lt;div&gt;&lt;b&gt;&lt;br&gt;&lt;/b&gt;&lt;div&gt;&lt;div&gt;&lt;br&gt;&lt;/div&gt;&lt;/div&gt;&lt;/div&gt;" style="text;html=1;align=center;verticalAlign=middle;whiteSpace=wrap;rounded=0;" vertex="1" parent="DfkuYRPkKveE3gYTs_tg-10">
          <mxGeometry x="10" y="55" width="100" height="30" as="geometry" />
        </mxCell>
        <mxCell id="DfkuYRPkKveE3gYTs_tg-12" value="Partido" style="swimlane;whiteSpace=wrap;html=1;fillColor=#dae8fc;strokeColor=#6c8ebf;" vertex="1" parent="1">
          <mxGeometry x="567" y="-30" width="120" height="90" as="geometry" />
        </mxCell>
        <mxCell id="DfkuYRPkKveE3gYTs_tg-13" value="&lt;b&gt;PK&amp;nbsp;&lt;span style=&quot;white-space: pre;&quot;&gt;&#x9;&lt;/span&gt;ID&lt;/b&gt;&lt;div&gt;Fecha&lt;/div&gt;&lt;div&gt;Estadio&lt;/div&gt;&lt;div&gt;&lt;b&gt;&lt;br&gt;&lt;/b&gt;&lt;div&gt;&lt;div&gt;&lt;br&gt;&lt;/div&gt;&lt;/div&gt;&lt;/div&gt;" style="text;html=1;align=center;verticalAlign=middle;whiteSpace=wrap;rounded=0;" vertex="1" parent="DfkuYRPkKveE3gYTs_tg-12">
          <mxGeometry x="10" y="55" width="100" height="30" as="geometry" />
        </mxCell>
        <mxCell id="DfkuYRPkKveE3gYTs_tg-14" value="ColegiadoPartido" style="swimlane;whiteSpace=wrap;html=1;fillColor=#dae8fc;strokeColor=#6c8ebf;" vertex="1" parent="1">
          <mxGeometry x="630" y="130" width="120" height="90" as="geometry" />
        </mxCell>
        <mxCell id="DfkuYRPkKveE3gYTs_tg-15" value="&lt;b&gt;PK&amp;nbsp;&lt;span style=&quot;white-space: pre;&quot;&gt;&#x9;&lt;/span&gt;ID&lt;/b&gt;&lt;div&gt;&lt;b&gt;FK&lt;span style=&quot;white-space: pre;&quot;&gt;&#x9;&lt;/span&gt;ID_Partido&lt;/b&gt;&lt;/div&gt;&lt;div&gt;&lt;b&gt;FK&amp;nbsp;&lt;span style=&quot;white-space: pre;&quot;&gt;&#x9;&lt;/span&gt;ID_Colegiado&lt;/b&gt;&lt;/div&gt;&lt;div&gt;Funcion&lt;br&gt;&lt;div&gt;&lt;div&gt;&lt;br&gt;&lt;/div&gt;&lt;/div&gt;&lt;/div&gt;" style="text;html=1;align=center;verticalAlign=middle;whiteSpace=wrap;rounded=0;" vertex="1" parent="DfkuYRPkKveE3gYTs_tg-14">
          <mxGeometry x="10" y="50" width="100" height="35" as="geometry" />
        </mxCell>
        <mxCell id="DfkuYRPkKveE3gYTs_tg-16" value="Colegiado" style="swimlane;whiteSpace=wrap;html=1;fillColor=#dae8fc;strokeColor=#6c8ebf;" vertex="1" parent="1">
          <mxGeometry x="790" y="10" width="120" height="90" as="geometry" />
        </mxCell>
        <mxCell id="DfkuYRPkKveE3gYTs_tg-17" value="&lt;b&gt;PK&amp;nbsp;&lt;span style=&quot;white-space: pre;&quot;&gt;&#x9;&lt;/span&gt;ID&lt;/b&gt;&lt;div&gt;Nombre&lt;/div&gt;&lt;div&gt;Nacioalidad&lt;br&gt;&lt;div&gt;&lt;div&gt;&lt;br&gt;&lt;/div&gt;&lt;/div&gt;&lt;/div&gt;" style="text;html=1;align=center;verticalAlign=middle;whiteSpace=wrap;rounded=0;" vertex="1" parent="DfkuYRPkKveE3gYTs_tg-16">
          <mxGeometry x="10" y="50" width="100" height="35" as="geometry" />
        </mxCell>
      </root>
    </mxGraphModel>
  </diagram>
</mxfile>
